<?xml version="1.0" standalone="no"?>
<!DOCTYPE svg PUBLIC "-//W3C//DTD SVG 20010904//EN"
 "http://www.w3.org/TR/2001/REC-SVG-20010904/DTD/svg10.dtd">
<svg version="1.0" xmlns="http://www.w3.org/2000/svg"
 width="192.000000pt" height="192.000000pt" viewBox="0 0 192.000000 192.000000"
 preserveAspectRatio="xMidYMid meet">
<metadata>
Created by potrace 1.11, written by Peter Selinger 2001-2013
</metadata>
<g transform="translate(0.000000,192.000000) scale(0.100000,-0.100000)"
fill="#000000" stroke="none">
<path d="M863 1898 c-18 -6 -33 -15 -33 -20 0 -5 -4 -7 -9 -3 -5 3 -12 1 -16
-5 -4 -6 -12 -7 -18 -4 -7 4 -9 4 -5 0 3 -4 -11 -24 -31 -44 -43 -41 -77 -103
-86 -153 -6 -32 -32 -62 -47 -53 -5 3 -8 1 -8 -3 0 -5 -16 -15 -35 -22 -19 -7
-35 -17 -35 -22 0 -6 -4 -7 -10 -4 -5 3 -10 1 -10 -6 0 -7 -3 -10 -6 -6 -4 3
-12 1 -20 -6 -33 -30 -44 -37 -44 -31 0 4 -11 -5 -25 -20 -13 -14 -30 -26 -36
-26 -7 0 -10 -2 -7 -6 8 -8 -75 -92 -86 -86 -5 3 -6 0 -2 -6 3 -6 -2 -17 -12
-24 -17 -12 -34 -41 -36 -61 -1 -4 -8 -12 -16 -17 -8 -5 -11 -10 -6 -10 6 0 1
-7 -10 -15 -14 -11 -15 -14 -4 -15 12 0 12 -2 1 -9 -16 -10 -62 -121 -55 -133
3 -4 0 -8 -7 -8 -7 0 -9 -3 -6 -7 4 -3 2 -12 -4 -19 -6 -7 -11 -45 -11 -84 0
-69 11 -100 37 -100 16 0 48 36 50 58 1 9 5 36 9 59 4 24 7 45 7 48 -1 3 5 19
14 35 8 16 14 33 13 37 -3 10 30 80 54 116 11 15 17 27 13 27 -3 0 5 10 18 23
13 12 26 30 30 40 3 9 11 17 17 17 6 0 8 5 5 10 -3 6 -1 10 6 10 14 0 65 52
61 63 -1 4 4 7 12 7 8 0 30 14 48 30 30 28 37 31 54 29 3 0 12 8 20 18 7 10
14 15 14 11 0 -4 15 1 34 11 37 21 46 19 46 -11 0 -11 5 -16 10 -13 6 3 10 -1
10 -9 0 -9 5 -16 12 -16 6 0 9 -3 5 -6 -8 -8 25 -44 35 -38 7 5 12 -10 9 -29
-1 -5 3 -6 8 -3 5 4 16 0 24 -8 8 -8 17 -12 21 -9 3 4 6 0 6 -7 0 -7 3 -10 7
-7 3 4 15 -1 26 -10 15 -13 18 -14 12 -3 -7 12 -6 13 6 4 26 -19 179 -5 179
17 0 5 3 8 8 7 13 -3 72 37 72 50 0 6 4 12 9 12 12 0 57 70 66 105 11 44 14
125 4 130 -4 3 -6 12 -3 19 3 8 0 17 -5 21 -6 3 -9 11 -6 16 4 5 1 9 -5 9 -6
0 -9 4 -6 9 7 11 -89 113 -97 104 -4 -3 -7 1 -7 10 0 10 -3 16 -7 15 -5 -1
-24 4 -43 11 -45 18 -136 22 -177 9z"/>
<path d="M1346 1515 c-7 -26 8 -65 24 -65 14 0 90 -77 90 -92 0 -9 3 -9 10 2
8 13 10 12 10 -3 0 -10 5 -15 10 -12 9 6 14 -8 11 -27 0 -5 4 -7 10 -5 6 1 19
-13 30 -32 10 -19 23 -37 28 -40 13 -9 61 -106 61 -125 0 -9 4 -16 8 -16 10 0
31 -82 34 -133 1 -21 5 -40 8 -42 8 -5 5 -153 -3 -161 -3 -3 -33 -6 -67 -6
-35 0 -60 -5 -60 -11 0 -6 -3 -7 -6 -4 -4 3 -16 1 -28 -5 -11 -7 -24 -11 -28
-10 -5 1 -8 -2 -8 -6 0 -5 -7 -17 -16 -28 -8 -10 -12 -12 -8 -4 4 9 -2 7 -13
-5 -11 -11 -19 -22 -17 -24 2 -2 -6 -12 -18 -22 -11 -11 -17 -19 -12 -19 5 0
4 -4 -2 -8 -33 -22 -40 -173 -10 -229 8 -17 12 -33 9 -37 -4 -3 -1 -6 5 -6 7
0 12 -7 12 -15 0 -8 7 -15 16 -15 8 0 12 -5 9 -10 -3 -6 1 -10 10 -10 12 0 15
-5 11 -16 -4 -11 -2 -15 8 -11 8 3 17 -1 20 -9 3 -9 10 -13 15 -10 5 3 12 -2
15 -11 6 -15 8 -15 16 -3 6 8 10 10 10 4 0 -7 7 -15 16 -18 10 -4 13 -2 8 7
-6 9 -3 8 8 -1 22 -18 145 -14 164 5 8 8 14 11 14 7 0 -5 5 -3 12 4 7 7 20 12
29 12 10 0 21 5 25 12 5 7 3 8 -7 3 -12 -8 -12 -6 0 8 7 9 17 15 21 12 4 -3
14 3 21 12 12 14 12 16 -1 8 -13 -8 -13 -6 -1 8 7 9 17 14 22 11 5 -3 9 4 9
15 0 10 4 21 10 23 5 2 11 15 12 30 1 16 5 28 8 28 4 0 6 35 4 77 -1 61 -7 88
-27 125 -14 26 -28 44 -31 41 -3 -4 -6 1 -6 10 0 9 -7 17 -15 17 -8 0 -15 7
-15 16 0 8 -4 13 -9 10 -5 -3 -12 1 -15 10 -3 8 -10 13 -14 10 -5 -3 -9 52
-10 122 0 110 -3 148 -12 172 -1 3 -2 8 -1 13 0 4 -3 7 -9 7 -5 0 -6 7 -3 17
4 9 2 14 -3 11 -5 -4 -10 10 -11 29 -1 19 -7 40 -12 47 -6 7 -9 15 -6 18 3 3
-1 11 -10 18 -8 7 -15 21 -15 31 0 11 -5 19 -11 19 -5 0 -7 5 -4 10 3 6 -1 13
-9 16 -9 3 -16 13 -16 20 0 8 -7 17 -15 20 -8 4 -12 10 -9 15 3 5 -2 12 -10
15 -9 3 -13 10 -10 15 3 5 0 9 -5 9 -6 0 -11 7 -11 15 0 8 -4 14 -8 12 -10 -3
-78 65 -74 76 1 4 -3 7 -9 7 -14 0 -39 26 -34 34 3 3 2 4 -2 1 -3 -3 -14 2
-23 10 -10 9 -33 18 -53 20 -31 4 -36 2 -41 -20z m358 -837 c4 3 6 0 6 -7 0
-7 4 -10 9 -6 10 6 51 -32 51 -47 0 -5 4 -7 9 -4 5 3 16 -5 25 -19 9 -14 14
-25 10 -25 -4 0 -1 -6 5 -13 26 -32 16 -167 -13 -167 -5 0 -7 -3 -4 -6 12 -12
-63 -73 -97 -80 -58 -11 -156 0 -170 19 -7 9 -14 15 -16 13 -2 -2 -14 7 -27
20 -12 13 -20 24 -17 24 3 0 -1 12 -8 28 -17 32 -16 137 1 168 6 12 8 24 5 28
-3 3 1 6 10 6 9 0 21 9 27 20 6 11 15 18 20 15 4 -3 10 0 12 7 6 18 87 36 125
27 18 -4 34 -4 37 -1z"/>
<path d="M612 1051 c2 -45 6 -81 9 -81 3 0 5 -10 4 -22 -1 -13 4 -38 11 -55 7
-18 11 -33 8 -33 -2 0 2 -13 10 -29 9 -16 12 -31 9 -35 -4 -3 -1 -6 5 -6 7 0
11 -3 10 -7 -4 -13 24 -73 34 -73 5 0 7 -4 4 -8 -3 -5 4 -14 14 -22 10 -8 18
-16 16 -19 -2 -3 11 -19 27 -36 17 -16 27 -23 23 -15 -5 8 3 2 18 -15 14 -16
25 -34 26 -38 0 -5 5 -5 10 -2 6 3 10 1 10 -5 0 -6 4 -9 9 -5 6 3 14 -2 19
-11 5 -9 13 -16 18 -16 13 -1 36 -8 54 -17 25 -13 246 -14 269 -1 19 10 21 20
21 128 0 67 -4 122 -10 128 -6 6 -12 25 -13 42 -1 18 -8 34 -15 37 -7 3 -10 9
-7 15 3 5 1 10 -6 10 -7 0 -10 3 -6 6 3 4 1 12 -6 19 -7 7 -25 29 -42 49 -16
20 -36 36 -43 36 -7 0 -10 5 -7 10 4 6 -9 17 -27 25 -18 8 -29 14 -23 15 5 0
-7 9 -28 20 -21 11 -42 18 -47 15 -6 -4 -10 -2 -10 3 0 10 -118 53 -156 56
-16 1 -34 4 -39 8 -6 3 -43 6 -83 7 l-72 2 2 -80z"/>
<path d="M190 750 c0 -5 -3 -9 -7 -8 -19 4 -60 -24 -88 -57 -16 -21 -36 -43
-43 -51 -7 -8 -10 -14 -5 -14 4 0 3 -4 -4 -8 -31 -19 -38 -187 -10 -239 10
-18 18 -36 19 -40 4 -14 58 -63 70 -63 6 0 8 -3 5 -7 -4 -3 15 -16 41 -28 39
-19 61 -23 132 -21 69 2 91 -1 118 -16 17 -11 32 -25 32 -30 0 -6 3 -9 6 -5 3
3 15 -3 27 -13 11 -11 24 -17 29 -14 5 3 7 0 6 -7 -2 -7 2 -14 7 -15 26 -3 75
-27 75 -36 0 -5 4 -7 9 -4 5 3 14 -1 21 -10 7 -8 19 -13 27 -10 7 3 13 1 13
-4 0 -6 10 -8 23 -6 12 2 28 -1 35 -6 6 -6 12 -8 12 -4 0 4 13 0 29 -8 16 -9
32 -12 35 -8 4 3 11 0 16 -8 7 -11 10 -11 10 -2 0 9 6 10 18 4 24 -12 208 -7
262 7 25 7 52 13 60 15 25 4 87 29 141 57 20 10 40 15 44 11 5 -4 5 -2 1 5 -3
6 -2 14 3 18 6 3 7 15 2 28 -5 12 -10 20 -13 17 -3 -3 -11 0 -19 6 -8 6 -21
10 -30 9 -25 -4 -93 -37 -101 -49 -5 -7 -8 -6 -8 3 0 11 -3 11 -16 0 -9 -7
-21 -14 -28 -16 -11 -2 -73 -14 -91 -17 -5 -1 -14 -4 -20 -7 -14 -7 -171 -3
-220 6 -22 4 -45 12 -52 17 -7 5 -17 7 -23 3 -5 -3 -10 -2 -10 4 0 6 -7 8 -15
5 -8 -4 -15 -1 -15 5 0 6 -7 8 -15 5 -8 -4 -15 -1 -15 6 0 6 -4 9 -9 6 -5 -4
-11 -1 -13 4 -2 6 -10 12 -19 13 -9 2 -28 10 -42 20 -15 9 -31 17 -37 17 -6 0
-15 10 -20 23 -5 12 -9 16 -9 8 -1 -11 -4 -11 -16 -1 -20 17 -19 40 3 57 10 9
11 12 2 7 -8 -4 -4 5 9 19 14 15 20 27 15 27 -5 0 -4 4 3 8 24 15 37 181 16
223 -7 15 -9 29 -6 33 4 3 1 6 -5 6 -7 0 -12 9 -12 21 0 15 -5 19 -16 15 -8
-3 -12 -2 -9 3 3 5 -4 16 -15 24 -11 7 -17 17 -13 20 3 4 -1 7 -10 7 -10 0
-17 4 -17 9 0 5 -15 16 -34 25 -39 18 -226 23 -226 6z m160 -78 c14 -5 28 -8
33 -5 4 2 7 -1 7 -6 0 -6 7 -11 16 -11 8 0 12 -4 9 -10 -3 -5 1 -10 9 -10 8 0
18 -9 21 -20 3 -11 11 -20 17 -20 6 0 8 -3 5 -7 -4 -3 -2 -12 5 -20 13 -16 18
-123 6 -123 -5 0 -6 -5 -3 -10 3 -6 -1 -17 -9 -26 -9 -9 -14 -20 -11 -25 4 -5
-1 -9 -10 -9 -9 0 -13 -4 -10 -10 3 -5 -1 -10 -9 -10 -8 0 -18 -5 -22 -12 -4
-7 -3 -8 4 -4 7 4 12 4 12 1 0 -3 -16 -13 -36 -21 -38 -16 -160 -17 -179 -2
-86 69 -103 100 -102 181 0 37 5 67 10 67 4 0 6 4 3 9 -7 11 65 91 85 95 8 1
22 6 31 11 21 12 85 11 118 -3z"/>
</g>
</svg>
